# xmcd
#
# Track frame offsets:
#	150
#	17942
#	33437
#	47025
#	65438
#
# Disc length: 1121 seconds
#
# Revision: 1
# Processed by: cddbd v1.5.2PL0 Copyright (c) Steve Scherf et al.
# Submitted via: audiograbber 1.83.01
#
DISCID=3d045f05
DTITLE=George Chenier - Make A Star Out Of Me
DYEAR=2010
DGENRE=Country
TTITLE0=George Chenier - Make A Star Out Of Me
TTITLE1=George Chenier - Forever Only Took Ten Years
TTITLE2=George Chenier - Out On The Road
TTITLE3=George Chenier - There's No You
TTITLE4=George Chenier and Carolyn DeRue - A Time In Their Lives
EXTD=
EXTT0=
EXTT1=
EXTT2=
EXTT3=
EXTT4=
PLAYORDER=
